<mxfile host="app.diagrams.net" modified="2024-04-18T07:46:18.755Z" agent="Mozilla/5.0 (Windows NT 10.0; Win64; x64) AppleWebKit/537.36 (KHTML, like Gecko) Chrome/123.0.0.0 Safari/537.36" etag="6KyE63hmfeKEa3vJwn6_" version="24.2.1" type="github">
  <diagram name="Page-1" id="jbMRIK46Z7TsJJB_fDQH">
    <mxGraphModel dx="1235" dy="655" grid="1" gridSize="10" guides="1" tooltips="1" connect="1" arrows="1" fold="1" page="1" pageScale="1" pageWidth="827" pageHeight="1169" math="0" shadow="0">
      <root>
        <mxCell id="0" />
        <mxCell id="1" parent="0" />
        <mxCell id="_kjgienJBv0ENxMN4GbK-1" value="" style="rounded=0;whiteSpace=wrap;html=1;" vertex="1" parent="1">
          <mxGeometry x="179.5" y="55" width="561" height="650" as="geometry" />
        </mxCell>
        <mxCell id="_kjgienJBv0ENxMN4GbK-2" value="Usuario" style="shape=umlActor;verticalLabelPosition=bottom;verticalAlign=top;html=1;outlineConnect=0;" vertex="1" parent="1">
          <mxGeometry x="80" y="170" width="60" height="130" as="geometry" />
        </mxCell>
        <mxCell id="_kjgienJBv0ENxMN4GbK-4" value="Administrador" style="shape=umlActor;verticalLabelPosition=bottom;verticalAlign=top;html=1;outlineConnect=0;" vertex="1" parent="1">
          <mxGeometry x="80" y="460" width="57.75" height="120" as="geometry" />
        </mxCell>
        <mxCell id="_kjgienJBv0ENxMN4GbK-9" value="SISTEMA" style="text;html=1;align=center;verticalAlign=middle;resizable=0;points=[];autosize=1;strokeColor=none;fillColor=none;fontSize=25;" vertex="1" parent="1">
          <mxGeometry x="349" y="15" width="130" height="40" as="geometry" />
        </mxCell>
        <mxCell id="_kjgienJBv0ENxMN4GbK-11" value="Registrarse" style="ellipse;whiteSpace=wrap;html=1;fontSize=19;" vertex="1" parent="1">
          <mxGeometry x="240" y="425" width="120" height="80" as="geometry" />
        </mxCell>
        <mxCell id="_kjgienJBv0ENxMN4GbK-12" value="Subir productos" style="ellipse;whiteSpace=wrap;html=1;fontSize=19;" vertex="1" parent="1">
          <mxGeometry x="240" y="605" width="120" height="80" as="geometry" />
        </mxCell>
        <mxCell id="_kjgienJBv0ENxMN4GbK-13" value="Comparar productos" style="ellipse;whiteSpace=wrap;html=1;fontSize=20;" vertex="1" parent="1">
          <mxGeometry x="240" y="195" width="120" height="80" as="geometry" />
        </mxCell>
        <mxCell id="_kjgienJBv0ENxMN4GbK-14" value="Filtrar producto" style="ellipse;whiteSpace=wrap;html=1;fontSize=21;" vertex="1" parent="1">
          <mxGeometry x="425" y="295" width="120" height="80" as="geometry" />
        </mxCell>
        <mxCell id="_kjgienJBv0ENxMN4GbK-15" value="Buscar avanzado" style="ellipse;whiteSpace=wrap;html=1;fontSize=22;" vertex="1" parent="1">
          <mxGeometry x="240" y="295" width="120" height="80" as="geometry" />
        </mxCell>
        <mxCell id="_kjgienJBv0ENxMN4GbK-45" style="edgeStyle=orthogonalEdgeStyle;rounded=0;orthogonalLoop=1;jettySize=auto;html=1;entryX=1;entryY=0.5;entryDx=0;entryDy=0;dashed=1;" edge="1" parent="1" source="_kjgienJBv0ENxMN4GbK-16" target="_kjgienJBv0ENxMN4GbK-18">
          <mxGeometry relative="1" as="geometry" />
        </mxCell>
        <mxCell id="_kjgienJBv0ENxMN4GbK-16" value="Comentar" style="ellipse;whiteSpace=wrap;html=1;fontSize=20;" vertex="1" parent="1">
          <mxGeometry x="534" y="70" width="120" height="80" as="geometry" />
        </mxCell>
        <mxCell id="_kjgienJBv0ENxMN4GbK-18" value="Valorar" style="ellipse;whiteSpace=wrap;html=1;fontSize=23;" vertex="1" parent="1">
          <mxGeometry x="330" y="70" width="120" height="80" as="geometry" />
        </mxCell>
        <mxCell id="_kjgienJBv0ENxMN4GbK-25" value="" style="endArrow=classic;html=1;rounded=0;entryX=0;entryY=0;entryDx=0;entryDy=0;" edge="1" parent="1" target="_kjgienJBv0ENxMN4GbK-11">
          <mxGeometry width="50" height="50" relative="1" as="geometry">
            <mxPoint x="110" y="240" as="sourcePoint" />
            <mxPoint x="160" y="190" as="targetPoint" />
          </mxGeometry>
        </mxCell>
        <mxCell id="_kjgienJBv0ENxMN4GbK-27" value="" style="endArrow=classic;html=1;rounded=0;exitX=0.75;exitY=0.1;exitDx=0;exitDy=0;exitPerimeter=0;" edge="1" parent="1" source="_kjgienJBv0ENxMN4GbK-4" target="_kjgienJBv0ENxMN4GbK-11">
          <mxGeometry width="50" height="50" relative="1" as="geometry">
            <mxPoint x="150" y="460" as="sourcePoint" />
            <mxPoint x="500" y="370" as="targetPoint" />
          </mxGeometry>
        </mxCell>
        <mxCell id="_kjgienJBv0ENxMN4GbK-29" value="" style="endArrow=classic;html=1;rounded=0;exitX=0.5;exitY=0.5;exitDx=0;exitDy=0;exitPerimeter=0;" edge="1" parent="1" source="_kjgienJBv0ENxMN4GbK-4" target="_kjgienJBv0ENxMN4GbK-12">
          <mxGeometry width="50" height="50" relative="1" as="geometry">
            <mxPoint x="450" y="420" as="sourcePoint" />
            <mxPoint x="500" y="370" as="targetPoint" />
          </mxGeometry>
        </mxCell>
        <mxCell id="_kjgienJBv0ENxMN4GbK-31" value="&amp;lt;&amp;lt;INCLUDE&amp;gt;&amp;gt;" style="text;html=1;align=center;verticalAlign=middle;whiteSpace=wrap;rounded=0;fontSize=9;rotation=-50;" vertex="1" parent="1">
          <mxGeometry x="365" y="550" width="60" height="30" as="geometry" />
        </mxCell>
        <mxCell id="_kjgienJBv0ENxMN4GbK-33" value="" style="endArrow=classic;html=1;rounded=0;entryX=0;entryY=0.5;entryDx=0;entryDy=0;exitX=0.5;exitY=0.5;exitDx=0;exitDy=0;exitPerimeter=0;" edge="1" parent="1" source="_kjgienJBv0ENxMN4GbK-2" target="_kjgienJBv0ENxMN4GbK-15">
          <mxGeometry width="50" height="50" relative="1" as="geometry">
            <mxPoint x="330" y="390" as="sourcePoint" />
            <mxPoint x="380" y="340" as="targetPoint" />
          </mxGeometry>
        </mxCell>
        <mxCell id="_kjgienJBv0ENxMN4GbK-36" value="&amp;lt;&amp;lt;INCLUDE&amp;gt;&amp;gt;" style="text;html=1;align=center;verticalAlign=middle;whiteSpace=wrap;rounded=0;fontSize=9;rotation=25;" vertex="1" parent="1">
          <mxGeometry x="403" y="365" width="60" height="30" as="geometry" />
        </mxCell>
        <mxCell id="_kjgienJBv0ENxMN4GbK-37" value="" style="endArrow=classic;html=1;rounded=0;exitX=1;exitY=0.5;exitDx=0;exitDy=0;" edge="1" parent="1" source="_kjgienJBv0ENxMN4GbK-15" target="_kjgienJBv0ENxMN4GbK-14">
          <mxGeometry width="50" height="50" relative="1" as="geometry">
            <mxPoint x="361" y="280" as="sourcePoint" />
            <mxPoint x="411" y="230" as="targetPoint" />
          </mxGeometry>
        </mxCell>
        <mxCell id="_kjgienJBv0ENxMN4GbK-39" value="" style="endArrow=classic;html=1;rounded=0;exitX=0.5;exitY=0.5;exitDx=0;exitDy=0;exitPerimeter=0;entryX=0;entryY=0.5;entryDx=0;entryDy=0;" edge="1" parent="1" source="_kjgienJBv0ENxMN4GbK-2" target="_kjgienJBv0ENxMN4GbK-13">
          <mxGeometry width="50" height="50" relative="1" as="geometry">
            <mxPoint x="150" y="160" as="sourcePoint" />
            <mxPoint x="200" y="110" as="targetPoint" />
          </mxGeometry>
        </mxCell>
        <mxCell id="_kjgienJBv0ENxMN4GbK-41" value="&amp;lt;&amp;lt;include&amp;gt;&amp;gt;" style="text;html=1;align=center;verticalAlign=middle;whiteSpace=wrap;rounded=0;fontSize=12;rotation=-50;" vertex="1" parent="1">
          <mxGeometry x="510" y="260" width="60" height="30" as="geometry" />
        </mxCell>
        <mxCell id="_kjgienJBv0ENxMN4GbK-42" value="" style="endArrow=classic;html=1;rounded=0;exitX=0.5;exitY=1;exitDx=0;exitDy=0;dashed=1;entryX=1;entryY=0;entryDx=0;entryDy=0;" edge="1" parent="1" source="_kjgienJBv0ENxMN4GbK-76" target="_kjgienJBv0ENxMN4GbK-14">
          <mxGeometry width="50" height="50" relative="1" as="geometry">
            <mxPoint x="191" y="380" as="sourcePoint" />
            <mxPoint x="241" y="330" as="targetPoint" />
          </mxGeometry>
        </mxCell>
        <mxCell id="_kjgienJBv0ENxMN4GbK-43" value="" style="endArrow=classic;html=1;rounded=0;exitX=0.5;exitY=0.5;exitDx=0;exitDy=0;exitPerimeter=0;entryX=0;entryY=0.5;entryDx=0;entryDy=0;" edge="1" parent="1" source="_kjgienJBv0ENxMN4GbK-2" target="_kjgienJBv0ENxMN4GbK-18">
          <mxGeometry width="50" height="50" relative="1" as="geometry">
            <mxPoint x="40" y="490" as="sourcePoint" />
            <mxPoint x="90" y="440" as="targetPoint" />
          </mxGeometry>
        </mxCell>
        <mxCell id="_kjgienJBv0ENxMN4GbK-46" value="&amp;lt;&amp;lt;EXTENDS&amp;gt;&amp;gt;" style="text;html=1;align=center;verticalAlign=middle;whiteSpace=wrap;rounded=0;fontSize=9;rotation=0;" vertex="1" parent="1">
          <mxGeometry x="463" y="90" width="60" height="30" as="geometry" />
        </mxCell>
        <mxCell id="_kjgienJBv0ENxMN4GbK-48" value="" style="endArrow=classic;html=1;rounded=0;exitX=0.714;exitY=0.949;exitDx=0;exitDy=0;entryX=0.5;entryY=0;entryDx=0;entryDy=0;dashed=1;exitPerimeter=0;" edge="1" parent="1" source="_kjgienJBv0ENxMN4GbK-18" target="_kjgienJBv0ENxMN4GbK-76">
          <mxGeometry width="50" height="50" relative="1" as="geometry">
            <mxPoint x="190" y="340" as="sourcePoint" />
            <mxPoint x="240" y="290" as="targetPoint" />
          </mxGeometry>
        </mxCell>
        <mxCell id="_kjgienJBv0ENxMN4GbK-54" style="edgeStyle=orthogonalEdgeStyle;rounded=0;orthogonalLoop=1;jettySize=auto;html=1;entryX=1;entryY=0.5;entryDx=0;entryDy=0;dashed=1;" edge="1" parent="1" source="_kjgienJBv0ENxMN4GbK-50" target="_kjgienJBv0ENxMN4GbK-11">
          <mxGeometry relative="1" as="geometry" />
        </mxCell>
        <mxCell id="_kjgienJBv0ENxMN4GbK-50" value="Inicia Usuario" style="ellipse;whiteSpace=wrap;html=1;fontSize=20;" vertex="1" parent="1">
          <mxGeometry x="450" y="425" width="120" height="80" as="geometry" />
        </mxCell>
        <mxCell id="_kjgienJBv0ENxMN4GbK-52" value="" style="endArrow=classic;html=1;rounded=0;exitX=0.955;exitY=0.754;exitDx=0;exitDy=0;entryX=0.5;entryY=0;entryDx=0;entryDy=0;dashed=1;exitPerimeter=0;" edge="1" parent="1" source="_kjgienJBv0ENxMN4GbK-15" target="_kjgienJBv0ENxMN4GbK-50">
          <mxGeometry width="50" height="50" relative="1" as="geometry">
            <mxPoint x="280" y="500" as="sourcePoint" />
            <mxPoint x="330" y="450" as="targetPoint" />
          </mxGeometry>
        </mxCell>
        <mxCell id="_kjgienJBv0ENxMN4GbK-53" value="" style="endArrow=classic;html=1;rounded=0;exitX=0.963;exitY=0.232;exitDx=0;exitDy=0;exitPerimeter=0;entryX=0;entryY=1;entryDx=0;entryDy=0;dashed=1;" edge="1" parent="1" source="_kjgienJBv0ENxMN4GbK-12" target="_kjgienJBv0ENxMN4GbK-50">
          <mxGeometry width="50" height="50" relative="1" as="geometry">
            <mxPoint x="430" y="620" as="sourcePoint" />
            <mxPoint x="480" y="570" as="targetPoint" />
          </mxGeometry>
        </mxCell>
        <mxCell id="_kjgienJBv0ENxMN4GbK-57" value="&amp;lt;&amp;lt;INCLUDE&amp;gt;&amp;gt;" style="text;html=1;align=center;verticalAlign=middle;whiteSpace=wrap;rounded=0;fontSize=9;rotation=0;" vertex="1" parent="1">
          <mxGeometry x="380" y="460" width="60" height="30" as="geometry" />
        </mxCell>
        <mxCell id="_kjgienJBv0ENxMN4GbK-59" value="&amp;lt;&amp;lt;include&amp;gt;&amp;gt;" style="text;html=1;align=center;verticalAlign=middle;whiteSpace=wrap;rounded=0;fontSize=12;rotation=9;" vertex="1" parent="1">
          <mxGeometry x="460" y="130" width="60" height="30" as="geometry" />
        </mxCell>
        <mxCell id="_kjgienJBv0ENxMN4GbK-63" value="Introducir Informacion" style="ellipse;whiteSpace=wrap;html=1;fontSize=17;" vertex="1" parent="1">
          <mxGeometry x="590" y="505" width="120" height="80" as="geometry" />
        </mxCell>
        <mxCell id="_kjgienJBv0ENxMN4GbK-64" value="Introducir imagenes" style="ellipse;whiteSpace=wrap;html=1;fontSize=18;" vertex="1" parent="1">
          <mxGeometry x="590" y="605" width="120" height="80" as="geometry" />
        </mxCell>
        <mxCell id="_kjgienJBv0ENxMN4GbK-65" value="" style="endArrow=classic;html=1;rounded=0;exitX=1;exitY=0.437;exitDx=0;exitDy=0;exitPerimeter=0;dashed=1;" edge="1" parent="1" source="_kjgienJBv0ENxMN4GbK-12" target="_kjgienJBv0ENxMN4GbK-63">
          <mxGeometry width="50" height="50" relative="1" as="geometry">
            <mxPoint x="450" y="570" as="sourcePoint" />
            <mxPoint x="500" y="520" as="targetPoint" />
          </mxGeometry>
        </mxCell>
        <mxCell id="_kjgienJBv0ENxMN4GbK-66" value="" style="endArrow=classic;html=1;rounded=0;entryX=0;entryY=0.5;entryDx=0;entryDy=0;exitX=1;exitY=0.5;exitDx=0;exitDy=0;dashed=1;" edge="1" parent="1" source="_kjgienJBv0ENxMN4GbK-12" target="_kjgienJBv0ENxMN4GbK-64">
          <mxGeometry width="50" height="50" relative="1" as="geometry">
            <mxPoint x="360" y="640" as="sourcePoint" />
            <mxPoint x="500" y="520" as="targetPoint" />
          </mxGeometry>
        </mxCell>
        <mxCell id="_kjgienJBv0ENxMN4GbK-67" value="&amp;lt;&amp;lt;INCLUDE&amp;gt;&amp;gt;" style="text;html=1;align=center;verticalAlign=middle;whiteSpace=wrap;rounded=0;fontSize=9;rotation=342;" vertex="1" parent="1">
          <mxGeometry x="455" y="575" width="60" height="30" as="geometry" />
        </mxCell>
        <mxCell id="_kjgienJBv0ENxMN4GbK-68" value="&amp;lt;&amp;lt;INCLUDE&amp;gt;&amp;gt;" style="text;html=1;align=center;verticalAlign=middle;whiteSpace=wrap;rounded=0;fontSize=9;rotation=0;" vertex="1" parent="1">
          <mxGeometry x="474" y="620" width="60" height="30" as="geometry" />
        </mxCell>
        <mxCell id="_kjgienJBv0ENxMN4GbK-69" value="Eliminar producto" style="ellipse;whiteSpace=wrap;html=1;fontSize=19;" vertex="1" parent="1">
          <mxGeometry x="240" y="514" width="120" height="80" as="geometry" />
        </mxCell>
        <mxCell id="_kjgienJBv0ENxMN4GbK-70" value="" style="endArrow=classic;html=1;rounded=0;exitX=0.5;exitY=0.5;exitDx=0;exitDy=0;exitPerimeter=0;entryX=0;entryY=0.5;entryDx=0;entryDy=0;" edge="1" parent="1" source="_kjgienJBv0ENxMN4GbK-4" target="_kjgienJBv0ENxMN4GbK-69">
          <mxGeometry width="50" height="50" relative="1" as="geometry">
            <mxPoint x="290" y="530" as="sourcePoint" />
            <mxPoint x="340" y="480" as="targetPoint" />
          </mxGeometry>
        </mxCell>
        <mxCell id="_kjgienJBv0ENxMN4GbK-72" value="" style="endArrow=classic;html=1;rounded=0;entryX=0.061;entryY=0.71;entryDx=0;entryDy=0;entryPerimeter=0;exitX=0.916;exitY=0.191;exitDx=0;exitDy=0;exitPerimeter=0;dashed=1;" edge="1" parent="1" source="_kjgienJBv0ENxMN4GbK-69" target="_kjgienJBv0ENxMN4GbK-50">
          <mxGeometry width="50" height="50" relative="1" as="geometry">
            <mxPoint x="290" y="530" as="sourcePoint" />
            <mxPoint x="340" y="480" as="targetPoint" />
          </mxGeometry>
        </mxCell>
        <mxCell id="_kjgienJBv0ENxMN4GbK-73" value="&amp;lt;&amp;lt;INCLUDE&amp;gt;&amp;gt;" style="text;html=1;align=center;verticalAlign=middle;whiteSpace=wrap;rounded=0;fontSize=9;rotation=-25;" vertex="1" parent="1">
          <mxGeometry x="360" y="490" width="60" height="30" as="geometry" />
        </mxCell>
        <mxCell id="_kjgienJBv0ENxMN4GbK-76" value="Seleccionar producto" style="ellipse;whiteSpace=wrap;html=1;fontSize=18;" vertex="1" parent="1">
          <mxGeometry x="515" y="170" width="120" height="80" as="geometry" />
        </mxCell>
        <mxCell id="_kjgienJBv0ENxMN4GbK-79" value="" style="endArrow=classic;html=1;rounded=0;exitX=1;exitY=0.5;exitDx=0;exitDy=0;entryX=0;entryY=0.5;entryDx=0;entryDy=0;dashed=1;" edge="1" parent="1" source="_kjgienJBv0ENxMN4GbK-13" target="_kjgienJBv0ENxMN4GbK-76">
          <mxGeometry width="50" height="50" relative="1" as="geometry">
            <mxPoint x="900" y="300" as="sourcePoint" />
            <mxPoint x="950" y="250" as="targetPoint" />
          </mxGeometry>
        </mxCell>
        <mxCell id="_kjgienJBv0ENxMN4GbK-80" value="&amp;lt;&amp;lt;include&amp;gt;&amp;gt;" style="text;html=1;align=center;verticalAlign=middle;whiteSpace=wrap;rounded=0;fontSize=12;rotation=-10;" vertex="1" parent="1">
          <mxGeometry x="370" y="200" width="60" height="30" as="geometry" />
        </mxCell>
      </root>
    </mxGraphModel>
  </diagram>
</mxfile>
